<svg width="139" height="24" viewBox="0 0 139 24" fill="none" xmlns="http://www.w3.org/2000/svg">
<path d="M19 9L20.25 6.25L23 5L20.25 3.75L19 1L17.75 3.75L15 5L17.75 6.25L19 9Z" fill="#464646"/>
<path d="M19 15L17.75 17.75L15 19L17.75 20.25L19 23L20.25 20.25L23 19L20.25 17.75L19 15Z" fill="#464646"/>
<path d="M11.5 9.5L9 4L6.5 9.5L1 12L6.5 14.5L9 20L11.5 14.5L17 12L11.5 9.5ZM9.99 12.99L9 15.17L8.01 12.99L5.83 12L8.01 11.01L9 8.83L9.99 11.01L12.17 12L9.99 12.99Z" fill="#464646"/>
<path d="M36.064 17.66C35.3493 17.66 34.6667 17.5427 34.016 17.308C33.3653 17.0733 32.8053 16.7267 32.336 16.268L33.104 14.876C33.6053 15.2813 34.096 15.58 34.576 15.772C35.0667 15.964 35.536 16.06 35.984 16.06C36.4 16.06 36.7307 15.9853 36.976 15.836C37.232 15.6867 37.36 15.4627 37.36 15.164C37.36 14.9613 37.2907 14.8067 37.152 14.7C37.0133 14.5827 36.8107 14.4813 36.544 14.396C36.288 14.3107 35.9733 14.2147 35.6 14.108C34.9813 13.9053 34.464 13.708 34.048 13.516C33.632 13.324 33.3173 13.084 33.104 12.796C32.9013 12.4973 32.8 12.1187 32.8 11.66C32.8 11.1053 32.9387 10.6307 33.216 10.236C33.504 9.83067 33.8987 9.516 34.4 9.292C34.912 9.068 35.5093 8.956 36.192 8.956C36.7893 8.956 37.3547 9.052 37.888 9.244C38.4213 9.42533 38.9067 9.724 39.344 10.14L38.48 11.5C38.0533 11.1693 37.648 10.9293 37.264 10.78C36.88 10.62 36.4907 10.54 36.096 10.54C35.872 10.54 35.6587 10.5667 35.456 10.62C35.264 10.6733 35.104 10.764 34.976 10.892C34.8587 11.0093 34.8 11.18 34.8 11.404C34.8 11.6067 34.8533 11.7667 34.96 11.884C35.0773 11.9907 35.248 12.0867 35.472 12.172C35.7067 12.2573 35.9893 12.3533 36.32 12.46C36.992 12.652 37.5573 12.8493 38.016 13.052C38.4853 13.2547 38.8373 13.5053 39.072 13.804C39.3067 14.092 39.424 14.492 39.424 15.004C39.424 15.836 39.12 16.4867 38.512 16.956C37.904 17.4253 37.088 17.66 36.064 17.66Z" fill="#464646"/>
<path d="M40.8022 14.364V9.116H42.9463V13.9C42.9463 14.54 43.0636 15.0253 43.2982 15.356C43.5329 15.676 43.8796 15.836 44.3382 15.836C44.6156 15.836 44.8876 15.7827 45.1543 15.676C45.4316 15.5587 45.6822 15.388 45.9062 15.164C46.1409 14.94 46.3382 14.6573 46.4982 14.316V9.116H48.6423V15.1C48.6423 15.324 48.6796 15.484 48.7542 15.58C48.8396 15.676 48.9729 15.7347 49.1543 15.756V17.5C48.9409 17.532 48.7596 17.5533 48.6103 17.564C48.4716 17.5853 48.3436 17.596 48.2262 17.596C47.8422 17.596 47.5276 17.5107 47.2822 17.34C47.0476 17.1587 46.9089 16.9133 46.8662 16.604L46.8182 15.932C46.4449 16.4973 45.9649 16.9293 45.3783 17.228C44.7916 17.516 44.1462 17.66 43.4422 17.66C42.5782 17.66 41.9223 17.3827 41.4743 16.828C41.0263 16.2627 40.8022 15.4413 40.8022 14.364Z" fill="#464646"/>
<path d="M53.8609 17.66C53.1462 17.66 52.4635 17.5427 51.8129 17.308C51.1622 17.0733 50.6022 16.7267 50.1329 16.268L50.9009 14.876C51.4022 15.2813 51.8929 15.58 52.3729 15.772C52.8635 15.964 53.3329 16.06 53.7809 16.06C54.1969 16.06 54.5275 15.9853 54.7729 15.836C55.0289 15.6867 55.1569 15.4627 55.1569 15.164C55.1569 14.9613 55.0875 14.8067 54.9489 14.7C54.8102 14.5827 54.6075 14.4813 54.3409 14.396C54.0849 14.3107 53.7702 14.2147 53.3969 14.108C52.7782 13.9053 52.2609 13.708 51.8449 13.516C51.4289 13.324 51.1142 13.084 50.9009 12.796C50.6982 12.4973 50.5969 12.1187 50.5969 11.66C50.5969 11.1053 50.7355 10.6307 51.0129 10.236C51.3009 9.83067 51.6955 9.516 52.1969 9.292C52.7089 9.068 53.3062 8.956 53.9889 8.956C54.5862 8.956 55.1515 9.052 55.6849 9.244C56.2182 9.42533 56.7035 9.724 57.1409 10.14L56.2769 11.5C55.8502 11.1693 55.4449 10.9293 55.0609 10.78C54.6769 10.62 54.2875 10.54 53.8929 10.54C53.6689 10.54 53.4555 10.5667 53.2529 10.62C53.0609 10.6733 52.9009 10.764 52.7729 10.892C52.6555 11.0093 52.5969 11.18 52.5969 11.404C52.5969 11.6067 52.6502 11.7667 52.7569 11.884C52.8742 11.9907 53.0449 12.0867 53.2689 12.172C53.5035 12.2573 53.7862 12.3533 54.1169 12.46C54.7889 12.652 55.3542 12.8493 55.8129 13.052C56.2822 13.2547 56.6342 13.5053 56.8689 13.804C57.1035 14.092 57.2209 14.492 57.2209 15.004C57.2209 15.836 56.9169 16.4867 56.3089 16.956C55.7009 17.4253 54.8849 17.66 53.8609 17.66Z" fill="#464646"/>
<path d="M58.1031 15.02C58.1031 14.476 58.2525 14.0013 58.5511 13.596C58.8605 13.18 59.2871 12.86 59.8311 12.636C60.3751 12.412 60.9991 12.3 61.7031 12.3C62.0551 12.3 62.4125 12.3267 62.7751 12.38C63.1378 12.4333 63.4525 12.5187 63.7191 12.636V12.188C63.7191 11.6547 63.5591 11.244 63.2391 10.956C62.9298 10.668 62.4658 10.524 61.8471 10.524C61.3885 10.524 60.9511 10.604 60.5351 10.764C60.1191 10.924 59.6818 11.1587 59.2231 11.468L58.5351 10.06C59.0898 9.69733 59.6551 9.42533 60.2311 9.244C60.8178 9.06267 61.4311 8.972 62.0711 8.972C63.2658 8.972 64.1938 9.27067 64.8551 9.868C65.5271 10.4653 65.8631 11.3187 65.8631 12.428V15.1C65.8631 15.324 65.9005 15.484 65.9751 15.58C66.0605 15.676 66.1938 15.7347 66.3751 15.756V17.5C66.1831 17.532 66.0071 17.5587 65.8471 17.58C65.6978 17.6013 65.5698 17.612 65.4631 17.612C65.0365 17.612 64.7111 17.516 64.4871 17.324C64.2738 17.132 64.1405 16.8973 64.0871 16.62L64.0391 16.188C63.6765 16.6573 63.2231 17.02 62.6791 17.276C62.1351 17.532 61.5805 17.66 61.0151 17.66C60.4605 17.66 59.9591 17.548 59.5111 17.324C59.0738 17.0893 58.7271 16.7747 58.4711 16.38C58.2258 15.9747 58.1031 15.5213 58.1031 15.02ZM63.3191 15.452C63.4365 15.324 63.5325 15.196 63.6071 15.068C63.6818 14.94 63.7191 14.8227 63.7191 14.716V13.868C63.4631 13.7613 63.1858 13.6813 62.8871 13.628C62.5885 13.564 62.3058 13.532 62.0391 13.532C61.4845 13.532 61.0258 13.6547 60.6631 13.9C60.3111 14.1347 60.1351 14.4493 60.1351 14.844C60.1351 15.0573 60.1938 15.26 60.3111 15.452C60.4285 15.644 60.5991 15.7987 60.8231 15.916C61.0471 16.0333 61.3138 16.092 61.6231 16.092C61.9431 16.092 62.2578 16.0333 62.5671 15.916C62.8765 15.788 63.1271 15.6333 63.3191 15.452Z" fill="#464646"/>
<path d="M75.6586 17.5H73.5146V12.796C73.5146 12.124 73.3973 11.6333 73.1626 11.324C72.928 11.0147 72.6026 10.86 72.1866 10.86C71.8986 10.86 71.6053 10.9347 71.3066 11.084C71.0186 11.2333 70.7573 11.4413 70.5226 11.708C70.288 11.964 70.1173 12.2627 70.0106 12.604V17.5H67.8666V9.116H69.8026V10.668C70.016 10.3053 70.288 10.0013 70.6186 9.756C70.9493 9.5 71.328 9.308 71.7546 9.18C72.192 9.04133 72.6506 8.972 73.1306 8.972C73.6533 8.972 74.08 9.068 74.4106 9.26C74.752 9.44133 75.008 9.692 75.1786 10.012C75.36 10.3213 75.4826 10.6733 75.5466 11.068C75.6213 11.4627 75.6586 11.8627 75.6586 12.268V17.5Z" fill="#464646"/>
<path d="M85.3149 17.5H83.1709V12.796C83.1709 12.124 83.0535 11.6333 82.8189 11.324C82.5842 11.0147 82.2589 10.86 81.8429 10.86C81.5549 10.86 81.2615 10.9347 80.9629 11.084C80.6749 11.2333 80.4135 11.4413 80.1789 11.708C79.9442 11.964 79.7735 12.2627 79.6669 12.604V17.5H77.5229V9.116H79.4589V10.668C79.6722 10.3053 79.9442 10.0013 80.2749 9.756C80.6055 9.5 80.9842 9.308 81.4109 9.18C81.8482 9.04133 82.3069 8.972 82.7869 8.972C83.3095 8.972 83.7362 9.068 84.0669 9.26C84.4082 9.44133 84.6642 9.692 84.8349 10.012C85.0162 10.3213 85.1389 10.6733 85.2029 11.068C85.2775 11.4627 85.3149 11.8627 85.3149 12.268V17.5Z" fill="#464646"/>
<path d="M86.6031 15.02C86.6031 14.476 86.7525 14.0013 87.0511 13.596C87.3605 13.18 87.7871 12.86 88.3311 12.636C88.8751 12.412 89.4991 12.3 90.2031 12.3C90.5551 12.3 90.9125 12.3267 91.2751 12.38C91.6378 12.4333 91.9525 12.5187 92.2191 12.636V12.188C92.2191 11.6547 92.0591 11.244 91.7391 10.956C91.4298 10.668 90.9658 10.524 90.3471 10.524C89.8885 10.524 89.4511 10.604 89.0351 10.764C88.6191 10.924 88.1818 11.1587 87.7231 11.468L87.0351 10.06C87.5898 9.69733 88.1551 9.42533 88.7311 9.244C89.3178 9.06267 89.9311 8.972 90.5711 8.972C91.7658 8.972 92.6938 9.27067 93.3551 9.868C94.0271 10.4653 94.3631 11.3187 94.3631 12.428V15.1C94.3631 15.324 94.4005 15.484 94.4751 15.58C94.5605 15.676 94.6938 15.7347 94.8751 15.756V17.5C94.6831 17.532 94.5071 17.5587 94.3471 17.58C94.1978 17.6013 94.0698 17.612 93.9631 17.612C93.5365 17.612 93.2111 17.516 92.9871 17.324C92.7738 17.132 92.6405 16.8973 92.5871 16.62L92.5391 16.188C92.1765 16.6573 91.7231 17.02 91.1791 17.276C90.6351 17.532 90.0805 17.66 89.5151 17.66C88.9605 17.66 88.4591 17.548 88.0111 17.324C87.5738 17.0893 87.2271 16.7747 86.9711 16.38C86.7258 15.9747 86.6031 15.5213 86.6031 15.02ZM91.8191 15.452C91.9365 15.324 92.0325 15.196 92.1071 15.068C92.1818 14.94 92.2191 14.8227 92.2191 14.716V13.868C91.9631 13.7613 91.6858 13.6813 91.3871 13.628C91.0885 13.564 90.8058 13.532 90.5391 13.532C89.9845 13.532 89.5258 13.6547 89.1631 13.9C88.8111 14.1347 88.6351 14.4493 88.6351 14.844C88.6351 15.0573 88.6938 15.26 88.8111 15.452C88.9285 15.644 89.0991 15.7987 89.3231 15.916C89.5471 16.0333 89.8138 16.092 90.1231 16.092C90.4431 16.092 90.7578 16.0333 91.0671 15.916C91.3765 15.788 91.6271 15.6333 91.8191 15.452Z" fill="#464646"/>
<path d="M113.234 17.5H111.09V12.796C111.09 12.1347 110.973 11.6493 110.738 11.34C110.514 11.02 110.2 10.86 109.794 10.86C109.378 10.86 108.978 11.0253 108.594 11.356C108.221 11.676 107.954 12.0973 107.794 12.62V17.5H105.65V12.796C105.65 12.124 105.533 11.6333 105.298 11.324C105.074 11.0147 104.76 10.86 104.354 10.86C103.938 10.86 103.538 11.02 103.154 11.34C102.781 11.66 102.514 12.0813 102.354 12.604V17.5H100.21V9.116H102.146V10.668C102.466 10.124 102.893 9.708 103.426 9.42C103.96 9.12133 104.573 8.972 105.266 8.972C105.96 8.972 106.498 9.14267 106.882 9.484C107.277 9.82533 107.528 10.2467 107.634 10.748C107.976 10.172 108.408 9.73467 108.93 9.436C109.464 9.12667 110.061 8.972 110.722 8.972C111.245 8.972 111.666 9.068 111.986 9.26C112.317 9.44133 112.573 9.692 112.754 10.012C112.936 10.3213 113.058 10.6733 113.122 11.068C113.197 11.4627 113.234 11.8627 113.234 12.268V17.5Z" fill="#464646"/>
<path d="M118.973 17.66C118.29 17.66 117.677 17.548 117.133 17.324C116.589 17.0893 116.125 16.7693 115.741 16.364C115.368 15.9587 115.08 15.4947 114.877 14.972C114.674 14.4493 114.573 13.9 114.573 13.324C114.573 12.7373 114.674 12.1827 114.877 11.66C115.08 11.1373 115.368 10.6733 115.741 10.268C116.125 9.86267 116.589 9.548 117.133 9.324C117.677 9.08933 118.29 8.972 118.973 8.972C119.656 8.972 120.264 9.08933 120.797 9.324C121.341 9.548 121.805 9.86267 122.189 10.268C122.573 10.6733 122.861 11.1373 123.053 11.66C123.256 12.1827 123.357 12.7373 123.357 13.324C123.357 13.9 123.256 14.4493 123.053 14.972C122.861 15.4947 122.573 15.9587 122.189 16.364C121.816 16.7693 121.357 17.0893 120.813 17.324C120.269 17.548 119.656 17.66 118.973 17.66ZM116.781 13.324C116.781 13.8147 116.877 14.252 117.069 14.636C117.261 15.0093 117.522 15.3027 117.853 15.516C118.184 15.7293 118.557 15.836 118.973 15.836C119.378 15.836 119.746 15.7293 120.077 15.516C120.408 15.292 120.669 14.9933 120.861 14.62C121.064 14.236 121.165 13.7987 121.165 13.308C121.165 12.828 121.064 12.396 120.861 12.012C120.669 11.628 120.408 11.3293 120.077 11.116C119.746 10.9027 119.378 10.796 118.973 10.796C118.557 10.796 118.184 10.908 117.853 11.132C117.522 11.3453 117.261 11.644 117.069 12.028C116.877 12.4013 116.781 12.8333 116.781 13.324Z" fill="#464646"/>
<path d="M129.703 17.068C129.522 17.1427 129.303 17.228 129.047 17.324C128.791 17.42 128.514 17.4947 128.215 17.548C127.927 17.612 127.634 17.644 127.335 17.644C126.94 17.644 126.578 17.5747 126.247 17.436C125.916 17.2973 125.65 17.0787 125.447 16.78C125.255 16.4707 125.159 16.0707 125.159 15.58V10.764H124.055V9.116H125.159V6.396H127.303V9.116H129.063V10.764H127.303V14.86C127.314 15.148 127.394 15.356 127.543 15.484C127.692 15.612 127.879 15.676 128.103 15.676C128.327 15.676 128.546 15.6387 128.759 15.564C128.972 15.4893 129.143 15.4253 129.271 15.372L129.703 17.068Z" fill="#464646"/>
<path d="M130.244 15.02C130.244 14.476 130.393 14.0013 130.692 13.596C131.001 13.18 131.428 12.86 131.972 12.636C132.516 12.412 133.14 12.3 133.844 12.3C134.196 12.3 134.553 12.3267 134.916 12.38C135.278 12.4333 135.593 12.5187 135.86 12.636V12.188C135.86 11.6547 135.7 11.244 135.38 10.956C135.07 10.668 134.606 10.524 133.988 10.524C133.529 10.524 133.092 10.604 132.676 10.764C132.26 10.924 131.822 11.1587 131.364 11.468L130.676 10.06C131.23 9.69733 131.796 9.42533 132.372 9.244C132.958 9.06267 133.572 8.972 134.212 8.972C135.406 8.972 136.334 9.27067 136.996 9.868C137.668 10.4653 138.004 11.3187 138.004 12.428V15.1C138.004 15.324 138.041 15.484 138.116 15.58C138.201 15.676 138.334 15.7347 138.516 15.756V17.5C138.324 17.532 138.148 17.5587 137.988 17.58C137.838 17.6013 137.71 17.612 137.604 17.612C137.177 17.612 136.852 17.516 136.628 17.324C136.414 17.132 136.281 16.8973 136.228 16.62L136.18 16.188C135.817 16.6573 135.364 17.02 134.82 17.276C134.276 17.532 133.721 17.66 133.156 17.66C132.601 17.66 132.1 17.548 131.652 17.324C131.214 17.0893 130.868 16.7747 130.612 16.38C130.366 15.9747 130.244 15.5213 130.244 15.02ZM135.46 15.452C135.577 15.324 135.673 15.196 135.748 15.068C135.822 14.94 135.86 14.8227 135.86 14.716V13.868C135.604 13.7613 135.326 13.6813 135.028 13.628C134.729 13.564 134.446 13.532 134.18 13.532C133.625 13.532 133.166 13.6547 132.804 13.9C132.452 14.1347 132.276 14.4493 132.276 14.844C132.276 15.0573 132.334 15.26 132.452 15.452C132.569 15.644 132.74 15.7987 132.964 15.916C133.188 16.0333 133.454 16.092 133.764 16.092C134.084 16.092 134.398 16.0333 134.708 15.916C135.017 15.788 135.268 15.6333 135.46 15.452Z" fill="#464646"/>
</svg>
